PathFileType	4	(X/Y/Z)	ROM_Ellenbogenflex_R 1.trc
DataRate	CameraRate	NumFrames	NumMarkers	Units	OrigDataRate	OrigDataStartFrame	OrigNumFrames
150	150	20	17	mm	150	1536	2047
Frame#	Time	ST1			ST2			ST3			RACR1			RACR2			RACR3			RUA1			RUA2			RUA3			RUA4			RLA1			RLA2			RLA3			RLA4			RH1			RH2			RH3		
		X1	Y1	Z1	X2	Y2	Z2	X3	Y3	Z3	X4	Y4	Z4	X5	Y5	Z5	X6	Y6	Z6	X7	Y7	Z7	X8	Y8	Z8	X9	Y9	Z9	X10	Y10	Z10	X11	Y11	Z11	X12	Y12	Z12	X13	Y13	Z13	X14	Y14	Z14	X15	Y15	Z15	X16	Y16	Z16	X17	Y17	Z17
	
1536	10.233333	316.843292	1167.156128	-15.936749	336.546509	1114.294067	18.596640	317.701355	1167.358765	39.922562	273.856445	1274.422485	245.095352	231.965256	1175.239014	269.022125	191.235199	1234.985718	181.187286	287.386322	1090.466431	229.740417	284.817230	1028.253418	234.589310	238.626053	1037.776001	269.632965	236.788223	1100.600952	257.614227	250.306961	715.472656	293.315125	300.377838	639.491516	250.238678	341.802002	673.439270	368.669464	246.289108	724.760620	356.787384	222.794296	610.503967	328.180817	218.718674	576.671753	363.133667	251.071976	623.361938	375.670441
1537	10.240000	316.834839	1167.167969	-15.927167	336.518005	1114.290039	18.600248	317.668091	1167.346191	39.930538	273.664032	1274.459351	245.045959	231.836594	1175.315186	269.013947	191.118256	1234.948242	181.074371	287.308624	1090.532593	229.899536	284.770508	1028.318848	234.724869	238.502396	1037.797852	269.717194	236.597519	1100.628052	257.638550	250.602859	715.478149	293.483643	300.903168	639.595337	250.451691	342.075745	673.613831	368.944000	246.510315	724.788635	356.935730	223.175568	610.497070	328.295532	219.179443	576.619751	363.146973	251.407883	623.401489	375.810516
1538	10.246667	316.824615	1167.175781	-15.916719	336.486420	1114.283569	18.602758	317.631226	1167.329712	39.938961	273.437714	1274.476562	245.032120	231.685410	1175.349121	268.990753	190.982880	1234.904297	180.974121	287.251312	1090.586304	230.065353	284.717865	1028.397705	234.868866	238.375702	1037.820068	269.809387	236.391876	1100.658081	257.660034	250.954880	715.480713	293.667938	301.494690	639.714417	250.669235	342.404358	673.807129	369.234375	246.772705	724.805847	357.093964	223.585327	610.509033	328.427368	219.699417	576.559143	363.185181	251.815796	623.440063	375.945679
1539	10.253333	316.812317	1167.176880	-15.903213	336.450439	1114.274414	18.607880	317.591400	1167.311279	39.949158	273.184753	1274.485229	245.043549	231.497238	1175.352051	268.959229	190.833221	1234.858154	180.886169	287.211823	1090.627563	230.240906	284.662384	1028.490845	235.020203	238.246490	1037.842651	269.909424	236.172989	1100.690308	257.678253	251.362778	715.490295	293.852356	302.144836	639.853149	250.881348	342.792480	674.020203	369.533020	247.080872	724.815308	357.258789	224.038666	610.543274	328.563202	220.288895	576.496094	363.247864	252.305527	623.475159	376.064972
1540	10.260000	316.798645	1167.169800	-15.883926	336.408386	1114.263428	18.619726	317.548767	1167.291992	39.962898	272.914642	1274.496582	245.066101	231.276718	1175.345459	268.923157	190.672775	1234.815674	180.806686	287.172241	1090.663696	230.423141	284.606873	1028.597534	235.176346	238.115356	1037.866943	270.014923	235.943176	1100.723633	257.693848	251.828568	715.514893	294.026031	302.855713	640.015198	251.090530	343.241852	674.255188	369.840576	247.439209	724.823181	357.428223	224.574722	610.586182	328.684052	220.958237	576.441162	363.331726	252.883026	623.508972	376.161163
1541	10.266667	316.784821	1167.155029	-15.857322	336.359497	1114.251709	18.642303	317.503754	1167.273804	39.982044	272.637329	1274.519531	245.085632	231.044647	1175.353760	268.883453	190.503845	1234.782349	180.729996	287.106323	1090.707275	230.604111	284.554047	1028.716919	235.332779	237.983337	1037.893555	270.120941	235.705704	1100.756592	257.708740	252.359619	715.556702	294.187500	303.641815	640.201172	251.308502	343.751068	674.515747	370.165741	247.850296	724.836609	357.598602	225.253311	610.606384	328.764862	221.726410	576.403992	363.437195	253.549988	623.548340	376.231873
1542	10.273333	316.772034	1167.134766	-15.823549	336.304688	1114.240356	18.678085	317.457306	1167.258179	40.007442	272.360840	1274.558594	245.091660	230.818314	1175.393555	268.841125	190.328064	1234.762329	180.650085	286.996704	1090.768188	230.777344	284.505737	1028.848389	235.484619	237.850998	1037.921387	270.221771	235.464355	1100.789185	257.724670	252.966660	715.610718	294.344757	304.528534	640.407776	251.550522	344.315704	674.807434	370.524231	248.313965	724.861145	357.764587	226.147659	610.559814	328.775360	222.627609	576.386841	363.575195	254.306549	623.600220	376.276825
1543	10.280000	316.761078	1167.111328	-15.783759	336.246277	1114.229370	18.727537	317.410217	1167.245850	40.038445	272.089478	1274.613037	245.079041	230.600281	1175.468384	268.799500	190.146088	1234.757080	180.562180	286.842316	1090.850098	230.939331	284.461548	1028.991333	235.630112	237.717087	1037.947144	270.313385	235.221771	1100.821655	257.741119	253.656555	715.667358	294.509430	305.544983	640.630310	251.832352	344.930115	675.137146	370.935638	248.828583	724.897583	357.922333	227.326370	610.393127	328.685760	223.706772	576.383728	363.765472	255.154785	623.666931	376.292755
1544	10.286667	316.751709	1167.086548	-15.739696	336.186859	1114.218628	18.789679	317.362427	1167.237671	40.073727	271.823120	1274.678833	245.047806	230.378784	1175.569092	268.764130	189.957535	1234.765869	180.464371	286.652252	1090.953247	231.087067	284.419403	1029.144043	235.772614	237.578644	1037.966064	270.394379	234.976944	1100.854004	257.755829	254.427643	715.719666	294.688843	306.714935	640.865112	252.168381	345.589569	675.511536	371.416229	249.391968	724.942749	358.071594	228.812210	610.054443	328.487183	225.006592	576.383240	364.025146	256.092072	623.744324	376.281433
1545	10.293333	316.742462	1167.063721	-15.693063	336.128021	1114.206787	18.861549	317.313019	1167.233643	40.112103	271.557892	1274.751221	245.001251	230.139023	1175.681519	268.739777	189.761795	1234.785645	180.357834	286.437225	1091.077026	231.219299	284.376648	1029.303467	235.918961	237.431564	1037.973022	270.466125	234.724319	1100.884033	257.767273	255.274780	715.769165	294.882385	308.050201	641.111328	252.566437	346.291565	675.933594	371.972260	250.000473	724.992310	358.214813	230.534348	609.530090	328.219879	226.542465	576.371826	364.347229	257.100952	623.822449	376.264130
1546	10.300000	316.731995	1167.047241	-15.644973	336.069519	1114.192871	18.938070	317.260254	1167.232788	40.152683	271.287659	1274.827759	244.943604	229.872925	1175.793579	268.727783	189.558563	1234.812256	180.244827	286.204956	1091.220337	231.339844	284.330322	1029.466064	236.076172	237.270096	1037.966553	270.532837	234.455002	1100.908691	257.775665	256.197601	715.824402	295.082825	309.549500	641.373840	253.021027	347.036530	676.401123	372.598511	250.648209	725.043030	358.355591	232.347260	608.899841	327.960083	228.275085	576.336304	364.679535	258.164124	623.891602	376.262848
1547	10.306667	316.719666	1167.038086	-15.596916	336.010223	1114.176880	19.014570	317.202393	1167.234009	40.194603	271.005524	1274.908569	244.879028	229.575821	1175.899536	268.726685	189.347733	1234.841309	180.125778	285.959930	1091.380981	231.459030	284.277100	1029.630005	236.249603	237.086746	1037.950439	270.600800	234.158661	1100.924438	257.781464	257.200592	715.893250	295.278687	311.202301	641.665283	253.513000	347.827515	676.909302	373.282166	251.328094	725.093872	358.496033	234.139633	608.337463	327.750519	230.128159	576.266052	364.938507	259.293915	623.950378	376.260956
1548	10.313333	316.704285	1167.033325	-15.551232	335.949249	1114.160400	19.088940	317.139160	1167.236938	40.236385	270.704315	1274.995483	244.811600	229.239685	1175.998413	268.733521	189.129898	1234.867920	179.998032	285.706818	1091.555420	231.593643	284.213409	1029.797119	236.442581	236.873428	1037.931152	270.676392	233.825363	1100.929077	257.783966	258.287018	715.978821	295.459869	312.996521	642.004578	254.016586	348.668427	677.455383	374.009064	252.033600	725.143494	358.632721	235.902603	607.995850	327.568176	232.050568	576.153076	365.052460	260.523743	624.005310	376.215942
1549	10.320000	316.684357	1167.027954	-15.509764	335.886505	1114.144775	19.160147	317.071625	1167.241333	40.276146	270.377014	1275.092163	244.744247	228.852295	1176.092896	268.744843	188.906738	1234.887329	179.856445	285.451843	1091.741333	231.763977	284.135376	1029.971436	236.657852	236.622116	1037.915161	270.763611	233.446304	1100.921753	257.780731	259.457520	716.079834	295.623505	314.928436	642.413940	254.507629	349.563019	678.042236	374.768677	252.761337	725.187683	358.755249	237.680634	607.890198	327.371643	234.050186	575.992065	364.983276	261.870667	624.063049	376.112366
1550	10.326667	316.659882	1167.017456	-15.473276	335.822357	1114.130249	19.226725	317.001556	1167.245605	40.312553	270.017670	1275.202637	244.676743	228.403061	1176.187378	268.756378	188.680237	1234.896484	179.694489	285.193756	1091.940552	231.984100	284.038605	1030.159180	236.900116	236.323868	1037.907104	270.862915	233.013092	1100.901733	257.767456	260.714233	716.191589	295.771362	317.008148	642.916870	254.970383	350.516022	678.676758	375.552368	253.512970	725.216919	358.849701	239.519547	607.934509	327.131989	236.176529	575.781921	364.715210	263.328583	624.125305	375.970062
1551	10.333333	316.633484	1166.998779	-15.442378	335.757507	1114.116089	19.287729	316.931244	1167.247803	40.345074	269.623718	1275.329102	244.605682	227.894669	1176.288696	268.761414	188.451752	1234.895630	179.505707	284.916168	1092.160034	232.253815	283.917755	1030.367798	237.178085	235.966415	1037.910522	270.972107	232.517181	1100.867676	257.737854	262.062378	716.308716	295.902466	319.259003	643.539001	255.400742	351.535248	679.364319	376.347931	254.294846	725.217712	358.903351	241.468277	608.051514	326.817352	238.493149	575.528259	364.240387	264.895020	624.187561	375.805145
1552	10.340000	316.609161	1166.971680	-15.417969	335.692810	1114.101318	19.342892	316.863251	1167.245972	40.373379	269.197418	1275.470337	244.527771	227.352280	1176.405029	268.750122	188.222168	1234.886719	179.285782	284.596832	1092.408813	232.564377	283.766449	1030.604492	237.504883	235.533020	1037.927002	271.087891	231.950195	1100.817505	257.685425	263.508545	716.430420	296.010254	321.710693	644.308350	255.804855	352.631897	680.105103	377.136932	255.120209	725.176880	358.908630	243.579208	608.217773	326.385803	241.061234	575.243469	363.554016	266.587524	624.238342	375.602661
1553	10.346667	316.589996	1166.937988	-15.400317	335.628815	1114.084473	19.391830	316.798798	1167.238037	40.397324	268.745880	1275.620850	244.442841	226.815109	1176.541748	268.712830	187.992523	1234.872192	179.034424	284.219543	1092.692627	232.909073	283.576874	1030.874634	237.896729	235.004425	1037.953857	271.206787	231.304565	1100.748535	257.607086	265.058899	716.564026	296.082916	324.390076	645.253235	256.194763	353.818634	680.894775	377.898132	256.012512	725.086487	358.866119	245.898239	608.450439	325.792877	243.928726	574.940918	362.653351	268.438995	624.263611	375.320099
1554	10.353333	316.576874	1166.900879	-15.388117	335.566101	1114.064209	19.434574	316.737244	1167.221069	40.417419	268.278625	1275.773560	244.353210	226.314484	1176.697876	268.646301	187.764557	1234.854248	178.756149	283.776581	1093.011108	233.287231	283.340302	1031.181030	238.369827	234.364182	1037.983154	271.324921	230.574448	1100.656860	257.504456	266.718933	716.722839	296.106415	327.315186	646.397949	256.581085	355.106384	681.728455	378.613403	257.000031	724.947266	358.781708	248.457870	608.773682	325.005280	247.116776	574.625732	361.537384	270.485016	624.253906	374.910126
1555	10.360000	316.569000	1166.862061	-15.378898	335.505615	1114.040161	19.472023	316.677887	1167.193726	40.434498	267.805298	1275.921387	244.261139	225.860916	1176.865356	268.556244	187.540527	1234.834351	178.459717	283.269958	1093.354858	233.704895	283.050079	1031.522095	238.934433	233.604477	1038.003662	271.437927	229.758240	1100.536377	257.380890	268.493347	716.917297	296.070679	330.490479	647.753723	256.963562	356.502228	682.604004	379.271515	258.103271	724.766602	358.658997	251.270294	609.173401	324.021545	250.611221	574.290283	360.211121	272.746460	624.208923	374.347595
